<?xml version="1.0" encoding="UTF-8"?>
<!DOCTYPE svg PUBLIC "-//W3C//DTD SVG 1.1//EN" "http://www.w3.org/Graphics/SVG/1.1/DTD/svg11.dtd">
<!-- Creator: CorelDRAW 2020 (64-Bit) -->
<svg xmlns="http://www.w3.org/2000/svg" xml:space="preserve" width="40.3604mm" height="40.3604mm" version="1.1" style="shape-rendering:geometricPrecision; text-rendering:geometricPrecision; image-rendering:optimizeQuality; fill-rule:evenodd; clip-rule:evenodd"
viewBox="0 0 4036.04 4036.04"
 xmlns:xlink="http://www.w3.org/1999/xlink"
 xmlns:xodm="http://www.corel.com/coreldraw/odm/2003">
 <defs>
  <style type="text/css">
   <![CDATA[
    .str0 {stroke:white;stroke-width:105.83;stroke-miterlimit:22.9256}
    .str1 {stroke:white;stroke-width:105.83;stroke-linecap:round;stroke-linejoin:round;stroke-miterlimit:22.9256}
    .fil1 {fill:none}
    .fil10 {fill:#33BEE0}
    .fil9 {fill:#AA3E76}
    .fil6 {fill:#AA3E76}
    .fil5 {fill:#E08F8F}
    .fil11 {fill:#E43F5A}
    .fil2 {fill:#F2A365}
    .fil7 {fill:#F50041}
    .fil8 {fill:#F84674}
    .fil3 {fill:#FBAD6D}
    .fil4 {fill:#FF4646}
    .fil0 {fill:white;fill-rule:nonzero}
   ]]>
  </style>
   <clipPath id="id0">
    <path d="M1918.4 -0.01l-1918.41 0 0 1918.41 1918.41 0 0 -1918.41z"/>
   </clipPath>
   <clipPath id="id1">
    <path d="M3076.86 -0.01c-263.71,0 -503.5,107.94 -677.39,281.83 -173.89,173.89 -281.83,413.68 -281.83,677.36 0,263.7 107.94,503.5 281.83,677.39 173.89,173.88 413.68,281.83 677.36,281.83 263.7,0 503.5,-107.95 677.39,-281.83 173.88,-173.89 281.83,-413.69 281.83,-677.36 0,-263.71 -107.95,-503.5 -281.83,-677.39 -173.89,-173.89 -413.69,-281.83 -677.36,-281.83z"/>
   </clipPath>
    <clipPath id="id2">
    </clipPath>
      <clipPath id="id3">
      </clipPath>
      <clipPath id="id4">
      </clipPath>
      <clipPath id="id5">
      </clipPath>
      <clipPath id="id6">
      </clipPath>
      <clipPath id="id7">
      </clipPath>
      <clipPath id="id8">
      </clipPath>
    <clipPath id="id9">
     <path d="M3076.86 -0.01c-263.71,0 -503.5,107.94 -677.39,281.83 -173.89,173.89 -281.83,413.68 -281.83,677.36 0,263.7 107.94,503.5 281.83,677.39 173.89,173.88 413.68,281.83 677.36,281.83 263.7,0 503.5,-107.95 677.39,-281.83 173.88,-173.89 281.83,-413.69 281.83,-677.36 0,-263.71 -107.95,-503.5 -281.83,-677.39 -173.89,-173.89 -413.69,-281.83 -677.36,-281.83z"/>
    </clipPath>
   <clipPath id="id10">
    <path d="M3443.18 2710.51c-343.79,-343.78 -810.08,-565.01 -1325.54,-590.4l0 1915.94 1915.94 0c-25.39,-515.46 -246.62,-981.76 -590.4,-1325.54z"/>
   </clipPath>
   <clipPath id="id11">
    <path d="M1918.4 2117.64l-1918.41 0 0 1918.41 1918.41 0 0 -1918.41z"/>
   </clipPath>
    <clipPath id="id12">
    </clipPath>
      <clipPath id="id13">
      </clipPath>
      <clipPath id="id14">
      </clipPath>
      <clipPath id="id15">
      </clipPath>
      <clipPath id="id16">
      </clipPath>
      <clipPath id="id17">
      </clipPath>
      <clipPath id="id18">
      </clipPath>
    <clipPath id="id19">
     <path d="M1918.4 2117.64l-1918.41 0 0 1918.41 1918.41 0 0 -1918.41z"/>
    </clipPath>
 </defs>
 <g id="Layer_x0020_1">
  <metadata id="CorelCorpID_0Corel-Layer"/>
  <g>
  </g>
  <g style="clip-path:url(#id0)">
   <g>
    <path class="fil0" d="M557.49 -745.29l-2429.27 3469.36 -86.4 -60.36 2429.27 -3469.36 86.4 60.36zm3319.11 0l-2429.27 3469.36 -86.4 -60.36 2429.27 -3469.36 86.4 60.36zm-368.79 0l-2429.27 3469.36 -86.4 -60.36 2429.27 -3469.36 86.4 60.36zm-368.79 0l-2429.27 3469.36 -86.4 -60.36 2429.27 -3469.36 86.4 60.36zm-368.79 0l-2429.27 3469.36 -86.4 -60.36 2429.27 -3469.36 86.4 60.36zm-368.79 0l-2429.27 3469.36 -86.4 -60.36 2429.27 -3469.36 86.4 60.36zm-368.79 0l-2429.27 3469.36 -86.4 -60.36 2429.27 -3469.36 86.4 60.36zm-368.79 0l-2429.27 3469.36 -86.4 -60.36 2429.27 -3469.36 86.4 60.36zm-368.79 0l-2429.27 3469.36 -86.4 -60.36 2429.27 -3469.36 86.4 60.36zm-368.79 0l-2429.27 3469.36 -86.4 -60.36 2429.27 -3469.36 86.4 60.36z"/>
   </g>
  </g>
  <polygon class="fil1" points="1918.4,-0.01 -0.01,-0.01 -0.01,1918.4 1918.4,1918.4 "/>
  <path class="fil2" d="M3076.86 -0.01c-263.71,0 -503.5,107.94 -677.39,281.83 -173.89,173.89 -281.83,413.68 -281.83,677.36 0,263.7 107.94,503.5 281.83,677.39 173.89,173.88 413.68,281.83 677.36,281.83 263.7,0 503.5,-107.95 677.39,-281.83 173.88,-173.89 281.83,-413.69 281.83,-677.36 0,-263.71 -107.95,-503.5 -281.83,-677.39 -173.89,-173.89 -413.69,-281.83 -677.36,-281.83z"/>
  <g style="clip-path:url(#id1)">
   <g>
    <polygon id="1" class="fil3" points="-2963.25,3761.53 1470.07,3761.53 1470.07,8007.93 -2963.25,8007.93 "/>
   </g>
   <g style="clip-path:url(#id2)">
    <g id="_2047530185600">
     <g>
      <path id="2" class="fil4 str0" d="M1994.17 3330.98c1287.35,1464.79 1292.85,3655.94 12.85,5127.16 -1280,1471.24 -3450.83,1768.93 -5079.65,696.6 -1628.8,-1072.33 -2213.38,-3184.06 -1367.89,-4941.34 722.26,-1071.42 871,-1900.42 446.21,-2487.03 127.36,-1234.86 970.41,-2278.72 2150.82,-2663.1 1180.42,-384.39 2476.48,-37.11 3306.55,885.98 830.07,923.09 1038.25,2248.62 531.11,3381.73z"/>
      <path class="fil5" d="M8290.51 7010.44c119.29,-3722.21 178.95,-5583.31 178.95,-5583.31 0,0 -2165.33,-383.19 -6746.51,103.12 -1392.51,358.34 -4250.36,2199.44 -1830.93,3430.93 563.81,286.98 3944.43,-98.72 2824.38,1127.91 -774.71,848.42 2844.44,921.35 2858.12,921.35 549.03,0 2280.16,-40.87 2715.99,0z"/>
     </g>
     <g style="clip-path:url(#id3)">
      <g>
       <path id="1" class="fil6 str0" d="M-2128.32 3201.78c2128.62,-2630.84 3936.04,-3122.63 5422.26,-1475.41 1959.6,157.5 2761.24,1520.12 2404.9,4087.86 -4022.86,2583.82 -6631.92,1713.01 -7827.16,-2612.45z"/>
      </g>
     </g>
     <g style="clip-path:url(#id4)">
      <path class="fil1 str1" d="M8290.51 7010.44c119.29,-3722.21 178.95,-5583.31 178.95,-5583.31 0,0 -2165.33,-383.19 -6746.51,103.12 -1392.51,358.34 -4250.36,2199.44 -1830.93,3430.93 563.81,286.98 3944.43,-98.72 2824.38,1127.91 -774.71,848.42 2844.44,921.35 2858.12,921.35 549.03,0 2280.16,-40.87 2715.99,0z"/>
      <path class="fil7" d="M4596.87 8438.93l865.61 -2215.44c-2329.57,-4701.12 -6999.56,667.87 -9242.57,-823.62 -1900.49,-1263.76 800.13,-1881.73 -825.95,-2184.46 -504.37,-93.88 -1100.3,-150.83 -1610.87,-81.43 -1361.65,185.12 -3148.93,1098.66 -2775.8,2152.27l3289.14 3370.55 6585.45 1503.2 3714.99 -1721.07z"/>
     </g>
     <g style="clip-path:url(#id5)">
      <g>
       <path id="1" class="fil8 str0" d="M-7747.49 6145.63c2358.55,2012.59 3520.53,2397.59 3485.92,1155.02 -456.16,-1183.46 -503.69,-2240.14 -142.57,-3170.02 2141.27,-1214.14 961.21,-1571.46 -3540.19,-1071.93 -2312.84,1868.7 -2247.23,2897.68 196.84,3086.93z"/>
      </g>
     </g>
     <g style="clip-path:url(#id6)">
      <path class="fil1 str1" d="M4596.87 8438.93l865.61 -2215.44c-2329.57,-4701.12 -6999.56,667.87 -9242.57,-823.62 -1900.49,-1263.76 800.13,-1881.73 -825.95,-2184.46 -504.37,-93.88 -1100.3,-150.83 -1610.87,-81.43 -1361.65,185.12 -3148.93,1098.66 -2775.8,2152.27l3289.14 3370.55 6585.45 1503.2 3714.99 -1721.07z"/>
      <path class="fil9 str1" d="M10473.73 8728.39c-3259.82,-2356.48 -4282.58,-4084.64 -8062.07,-2007.34 -2252.02,1237.76 -3701.05,-1254.29 -7301.25,924.41 -601.97,364.28 -3360.99,1176.01 -4103.12,1176.01l-1113.09 1624.85 15354.12 214.75 5225.41 -1932.68z"/>
      <path class="fil3 str1" d="M-11501.63 5865.15l1918.36 -161.02c839.2,323.55 125.62,-2867.33 5418.69,1679.55 3099.01,2662.14 4437.38,-2692.12 8870.89,488.83 754.39,541.26 3040.89,1028.09 2793.23,848.22l1972.05 3801.44 -13779.33 286.32 -7659.16 -3614.83 465.27 -3328.51z"/>
      <path class="fil10" d="M-8992.71 5286.29c425.68,-518.79 1268.88,-960.09 4828.13,2097.39 153.96,158.36 379.06,316.08 675.26,473.16 17.62,9.5 35.15,18.55 52.67,27.55 610.68,314.9 1739.96,680.94 2922.7,990.77l-686.95 465.95 -8310.77 -54.37 518.96 -4000.45z"/>
     </g>
     <g style="clip-path:url(#id7)">
      <g>
       <path id="1" class="fil5 str0" d="M-746.59 8821.47c-2382.96,2005.3 -5863.15,2005.3 -8246.12,0 1788.45,-496.06 3468.59,-1050.56 5040.42,-1663.53 1956.51,219.54 3025.08,774.05 3205.7,1663.53z"/>
      </g>
     </g>
     <g style="clip-path:url(#id8)">
      <path class="fil1 str1" d="M-8992.71 5286.29c425.68,-518.79 1268.88,-960.09 4828.13,2097.39 153.96,158.36 379.06,316.08 675.26,473.16 17.62,9.5 35.15,18.55 52.67,27.55 610.68,314.9 1739.96,680.94 2922.7,990.77l-686.95 465.95 -8310.77 -54.37 518.96 -4000.45z"/>
      <path class="fil10 str1" d="M-137.02 4945.76c9.83,5.11 19.02,10.33 29.04,15.42 563.8,286.98 4474.72,902.55 2940.28,1538.64 -3199.38,1326.27 1044.58,3314.16 2866.76,-686.06 -1376.98,-2778.79 -3808.24,-1629.46 -5836.08,-868z"/>
      <path class="fil8 str1" d="M2998.58 6418.73c-44.47,25.94 -97.1,51.91 -159.09,77.94 -138.67,69.21 -280.99,143.69 -427.83,224.38 -68.76,37.79 -136.75,72 -204.1,103.08 -1917.14,1279.25 1813.33,2672.88 3491.28,-1009.9 -758.87,-88.27 -1608.42,81.02 -2700.26,604.5z"/>
      <path class="fil4 str1" d="M2189.22 6836.97c-1442.42,982.32 425.85,2021.13 2125.06,771.37 -802.5,-506.22 -1500.05,-726.5 -2125.06,-771.37z"/>
     </g>
    </g>
   </g>
   <g style="clip-path:url(#id9)">
    <polygon class="fil1" points="-2963.25,3761.53 1470.07,3761.53 1470.07,8007.93 -2963.25,8007.93 "/>
   </g>
  </g>
  <path class="fil1" d="M3076.86 -0.01c-263.71,0 -503.5,107.94 -677.39,281.83 -173.89,173.89 -281.83,413.68 -281.83,677.36 0,263.7 107.94,503.5 281.83,677.39 173.89,173.88 413.68,281.83 677.36,281.83 263.7,0 503.5,-107.95 677.39,-281.83 173.88,-173.89 281.83,-413.69 281.83,-677.36 0,-263.71 -107.95,-503.5 -281.83,-677.39 -173.89,-173.89 -413.69,-281.83 -677.36,-281.83z"/>
  <g>
  </g>
  <g style="clip-path:url(#id10)">
   <g>
    <path class="fil0" d="M3478.58 4781.36l2429.27 -3469.36 86.4 60.36 -2429.27 3469.36 -86.4 -60.36zm-3319.11 0l2429.27 -3469.36 86.4 60.36 -2429.27 3469.36 -86.4 -60.36zm368.79 0l2429.27 -3469.36 86.4 60.36 -2429.27 3469.36 -86.4 -60.36zm368.79 0l2429.27 -3469.36 86.4 60.36 -2429.27 3469.36 -86.4 -60.36zm368.79 0l2429.27 -3469.36 86.4 60.36 -2429.27 3469.36 -86.4 -60.36zm368.79 0l2429.27 -3469.36 86.4 60.36 -2429.27 3469.36 -86.4 -60.36zm368.79 0l2429.27 -3469.36 86.4 60.36 -2429.27 3469.36 -86.4 -60.36zm368.79 0l2429.27 -3469.36 86.4 60.36 -2429.27 3469.36 -86.4 -60.36zm368.79 0l2429.27 -3469.36 86.4 60.36 -2429.27 3469.36 -86.4 -60.36zm368.79 0l2429.27 -3469.36 86.4 60.36 -2429.27 3469.36 -86.4 -60.36z"/>
   </g>
  </g>
  <path class="fil1" d="M3443.18 2710.51c-343.79,-343.78 -810.08,-565.01 -1325.54,-590.4l0 1915.94 1915.94 0c-25.39,-515.46 -246.62,-981.76 -590.4,-1325.54z"/>
  <polygon class="fil11" points="1918.4,2117.64 -0.01,2117.64 -0.01,4036.05 1918.4,4036.05 "/>
  <g style="clip-path:url(#id11)">
   <g>
    <polygon id="1" class="fil3" points="2098.97,4153.8 6532.29,4153.8 6532.29,8400.2 2098.97,8400.2 "/>
   </g>
   <g style="clip-path:url(#id12)">
    <g>
     <g id="_2047530182624">
      <path id="2" class="fil4 str0" d="M7056.39 3723.25c1287.35,1464.79 1292.85,3655.94 12.84,5127.16 -1279.99,1471.24 -3450.83,1768.93 -5079.64,696.6 -1628.8,-1072.33 -2213.38,-3184.06 -1367.89,-4941.34 722.25,-1071.42 870.99,-1900.42 446.21,-2487.02 127.35,-1234.87 970.41,-2278.73 2150.82,-2663.11 1180.42,-384.39 2476.47,-37.11 3306.54,885.98 830.07,923.09 1038.25,2248.62 531.12,3381.73z"/>
      <path class="fil5" d="M13352.72 7402.71c119.3,-3722.21 178.96,-5583.31 178.96,-5583.31 0,0 -2165.33,-383.19 -6746.52,103.12 -1392.5,358.34 -4250.35,2199.44 -1830.92,3430.93 563.8,286.98 3944.43,-98.72 2824.38,1127.91 -774.71,848.42 2844.44,921.35 2858.12,921.35 549.03,0 2280.16,-40.87 2715.98,0z"/>
     </g>
     <g style="clip-path:url(#id13)">
      <g>
       <path id="1" class="fil6 str0" d="M2933.9 3594.05c2128.62,-2630.84 3936.04,-3122.63 5422.26,-1475.4 1959.6,157.49 2761.23,1520.11 2404.9,4087.85 -4022.87,2583.82 -6631.92,1713.01 -7827.16,-2612.45z"/>
      </g>
     </g>
     <g style="clip-path:url(#id14)">
      <path class="fil1 str1" d="M13352.72 7402.71c119.3,-3722.21 178.96,-5583.31 178.96,-5583.31 0,0 -2165.33,-383.19 -6746.52,103.12 -1392.5,358.34 -4250.35,2199.44 -1830.92,3430.93 563.8,286.98 3944.43,-98.72 2824.38,1127.91 -774.71,848.42 2844.44,921.35 2858.12,921.35 549.03,0 2280.16,-40.87 2715.98,0z"/>
      <path class="fil7" d="M9659.08 8831.2l865.61 -2215.44c-2329.57,-4701.12 -6999.55,667.87 -9242.56,-823.62 -1900.5,-1263.76 800.13,-1881.73 -825.95,-2184.45 -504.37,-93.89 -1100.31,-150.84 -1610.87,-81.44 -1361.65,185.12 -3148.94,1098.66 -2775.8,2152.27l3289.13 3370.55 6585.46 1503.2 3714.98 -1721.07z"/>
     </g>
     <g style="clip-path:url(#id15)">
      <g>
       <path id="1" class="fil8 str0" d="M-2685.27 6537.9c2358.55,2012.59 3520.53,2397.59 3485.92,1155.02 -456.16,-1183.46 -503.7,-2240.13 -142.57,-3170.01 2141.27,-1214.15 961.21,-1571.46 -3540.19,-1071.94 -2312.84,1868.7 -2247.23,2897.68 196.84,3086.93z"/>
      </g>
     </g>
     <g style="clip-path:url(#id16)">
      <path class="fil1 str1" d="M9659.08 8831.2l865.61 -2215.44c-2329.57,-4701.12 -6999.55,667.87 -9242.56,-823.62 -1900.5,-1263.76 800.13,-1881.73 -825.95,-2184.45 -504.37,-93.89 -1100.31,-150.84 -1610.87,-81.44 -1361.65,185.12 -3148.94,1098.66 -2775.8,2152.27l3289.13 3370.55 6585.46 1503.2 3714.98 -1721.07z"/>
      <path class="fil9 str1" d="M15535.95 9120.66c-3259.82,-2356.48 -4282.58,-4084.63 -8062.07,-2007.34 -2252.02,1237.76 -3701.06,-1254.29 -7301.26,924.41 -601.96,364.28 -3360.98,1176.01 -4103.11,1176.01l-1113.1 1624.85 15354.12 214.75 5225.42 -1932.68z"/>
      <path class="fil3 str1" d="M-6439.41 6257.42l1918.36 -161.01c839.2,323.54 125.62,-2867.34 5418.69,1679.54 3099.01,2662.14 4437.37,-2692.12 8870.89,488.83 754.39,541.26 3040.89,1028.09 2793.22,848.22l1972.06 3801.44 -13779.33 286.32 -7659.17 -3614.83 465.28 -3328.51z"/>
      <path class="fil10" d="M-3930.49 5678.56c425.68,-518.79 1268.87,-960.09 4828.13,2097.39 153.95,158.36 379.06,316.08 675.25,473.16 17.62,9.5 35.16,18.55 52.68,27.55 610.67,314.9 1739.96,680.94 2922.69,990.77l-686.95 465.95 -8310.77 -54.37 518.97 -4000.45z"/>
     </g>
     <g style="clip-path:url(#id17)">
      <g>
       <path id="1" class="fil5 str0" d="M4315.63 9213.74c-2382.96,2005.3 -5863.16,2005.3 -8246.12,0 1788.45,-496.06 3468.58,-1050.56 5040.42,-1663.53 1956.51,219.54 3025.07,774.05 3205.7,1663.53z"/>
      </g>
     </g>
     <g style="clip-path:url(#id18)">
      <path class="fil1 str1" d="M-3930.49 5678.56c425.68,-518.79 1268.87,-960.09 4828.13,2097.39 153.95,158.36 379.06,316.08 675.25,473.16 17.62,9.5 35.16,18.55 52.68,27.55 610.67,314.9 1739.96,680.94 2922.69,990.77l-686.95 465.95 -8310.77 -54.37 518.97 -4000.45z"/>
      <path class="fil10 str1" d="M4925.19 5338.03c9.83,5.12 19.02,10.33 29.05,15.42 563.79,286.98 4474.72,902.55 2940.28,1538.64 -3199.38,1326.27 1044.58,3314.16 2866.76,-686.05 -1376.98,-2778.8 -3808.24,-1629.47 -5836.09,-868.01z"/>
      <path class="fil8 str1" d="M8060.8 6811c-44.47,25.94 -97.1,51.91 -159.09,77.94 -138.68,69.21 -281,143.69 -427.83,224.38 -68.76,37.79 -136.76,72 -204.1,103.08 -1917.15,1279.25 1813.32,2672.88 3491.28,-1009.9 -758.87,-88.27 -1608.42,81.02 -2700.26,604.5z"/>
      <path class="fil4 str1" d="M7251.43 7229.24c-1442.42,982.32 425.85,2021.13 2125.06,771.37 -802.49,-506.22 -1500.04,-726.49 -2125.06,-771.37z"/>
     </g>
    </g>
   </g>
   <g style="clip-path:url(#id19)">
    <polygon class="fil1" points="2098.97,4153.8 6532.29,4153.8 6532.29,8400.2 2098.97,8400.2 "/>
   </g>
  </g>
  <polygon class="fil1" points="1918.4,2117.64 -0.01,2117.64 -0.01,4036.05 1918.4,4036.05 "/>
 </g>
</svg>
